<?xml version="1.0" encoding="iso-8859-1"?>
<!-- Generator: Adobe Illustrator 19.2.0, SVG Export Plug-In . SVG Version: 6.00 Build 0)  -->
<svg version="1.1" id="Layer_1" xmlns="http://www.w3.org/2000/svg" xmlns:xlink="http://www.w3.org/1999/xlink" x="0px" y="0px"
	 viewBox="0 0 40 40" style="enable-background:new 0 0 40 40;" xml:space="preserve">
<line style="fill:none;stroke:#C74343;stroke-miterlimit:10;" x1="24.5" y1="28.5" x2="27.5" y2="19.5"/>
<line style="fill:none;stroke:#C74343;stroke-miterlimit:10;" x1="14.5" y1="10.5" x2="11.5" y2="19.5"/>
<line style="fill:none;stroke:#C74343;stroke-miterlimit:10;" x1="14.5" y1="28.5" x2="11.5" y2="19.5"/>
<line style="fill:none;stroke:#4E7AB5;stroke-miterlimit:10;" x1="9.5" y1="36.5" x2="14.5" y2="28.5"/>
<line style="fill:none;stroke:#4E7AB5;stroke-miterlimit:10;" x1="4.5" y1="12.5" x2="11.5" y2="19.5"/>
<line style="fill:none;stroke:#4E7AB5;stroke-miterlimit:10;" x1="24.5" y1="10.5" x2="14.5" y2="10.5"/>
<line style="fill:none;stroke:#4E7AB5;stroke-miterlimit:10;" x1="27.5" y1="19.5" x2="24.5" y2="10.5"/>
<line style="fill:none;stroke:#5E9C76;stroke-miterlimit:10;" x1="24.5" y1="10.5" x2="31.5" y2="3.5"/>
<line style="fill:none;stroke:#5E9C76;stroke-miterlimit:10;" x1="29.5" y1="36.5" x2="24.5" y2="28.5"/>
<line style="fill:none;stroke:#5E9C76;stroke-miterlimit:10;" x1="14.5" y1="28.5" x2="24.5" y2="28.5"/>
<line style="fill:none;stroke:#C74343;stroke-miterlimit:10;" x1="35.5" y1="14.5" x2="27.5" y2="19.5"/>
<g>
	<g>
		<circle style="fill:#BAE0BD;" cx="31.5" cy="3.5" r="3"/>
		<path style="fill:#5E9C76;" d="M31.5,1C32.878,1,34,2.121,34,3.5S32.878,6,31.5,6S29,4.879,29,3.5S30.122,1,31.5,1 M31.5,0
			C29.567,0,28,1.567,28,3.5S29.567,7,31.5,7S35,5.433,35,3.5S33.433,0,31.5,0L31.5,0z"/>
	</g>
	<g>
		<circle style="fill:#8BB7F0;" cx="24.5" cy="10.5" r="3"/>
		<path style="fill:#4E7AB5;" d="M24.5,8c1.378,0,2.5,1.121,2.5,2.5S25.878,13,24.5,13S22,11.879,22,10.5S23.122,8,24.5,8 M24.5,7
			C22.567,7,21,8.567,21,10.5s1.567,3.5,3.5,3.5s3.5-1.567,3.5-3.5S26.433,7,24.5,7L24.5,7z"/>
	</g>
	<g>
		<circle style="fill:#BAE0BD;" cx="24.5" cy="28.5" r="3"/>
		<path style="fill:#5E9C76;" d="M24.5,26c1.378,0,2.5,1.121,2.5,2.5S25.878,31,24.5,31S22,29.879,22,28.5S23.122,26,24.5,26
			 M24.5,25c-1.933,0-3.5,1.567-3.5,3.5s1.567,3.5,3.5,3.5s3.5-1.567,3.5-3.5S26.433,25,24.5,25L24.5,25z"/>
	</g>
	<g>
		<circle style="fill:#BAE0BD;" cx="29.5" cy="36.5" r="3"/>
		<path style="fill:#5E9C76;" d="M29.5,34c1.378,0,2.5,1.121,2.5,2.5S30.878,39,29.5,39S27,37.879,27,36.5S28.122,34,29.5,34
			 M29.5,33c-1.933,0-3.5,1.567-3.5,3.5s1.567,3.5,3.5,3.5s3.5-1.567,3.5-3.5S31.433,33,29.5,33L29.5,33z"/>
	</g>
	<g>
		<circle style="fill:#8BB7F0;" cx="14.5" cy="28.5" r="3"/>
		<path style="fill:#4E7AB5;" d="M14.5,26c1.378,0,2.5,1.121,2.5,2.5S15.878,31,14.5,31S12,29.879,12,28.5S13.122,26,14.5,26
			 M14.5,25c-1.933,0-3.5,1.567-3.5,3.5s1.567,3.5,3.5,3.5s3.5-1.567,3.5-3.5S16.433,25,14.5,25L14.5,25z"/>
	</g>
	<g>
		<circle style="fill:#8BB7F0;" cx="9.5" cy="36.5" r="3"/>
		<path style="fill:#4E7AB5;" d="M9.5,34c1.378,0,2.5,1.121,2.5,2.5S10.878,39,9.5,39S7,37.879,7,36.5S8.122,34,9.5,34 M9.5,33
			C7.567,33,6,34.567,6,36.5S7.567,40,9.5,40s3.5-1.567,3.5-3.5S11.433,33,9.5,33L9.5,33z"/>
	</g>
	<g>
		<circle style="fill:#F78F8F;" cx="35.5" cy="14.5" r="3"/>
		<path style="fill:#C74343;" d="M35.5,12c1.378,0,2.5,1.121,2.5,2.5S36.878,17,35.5,17S33,15.879,33,14.5S34.122,12,35.5,12
			 M35.5,11c-1.933,0-3.5,1.567-3.5,3.5s1.567,3.5,3.5,3.5s3.5-1.567,3.5-3.5S37.433,11,35.5,11L35.5,11z"/>
	</g>
	<g>
		<circle style="fill:#8BB7F0;" cx="4.5" cy="12.5" r="3"/>
		<path style="fill:#4E7AB5;" d="M4.5,10C5.878,10,7,11.121,7,12.5S5.878,15,4.5,15S2,13.879,2,12.5S3.122,10,4.5,10 M4.5,9
			C2.567,9,1,10.567,1,12.5S2.567,16,4.5,16S8,14.433,8,12.5S6.433,9,4.5,9L4.5,9z"/>
	</g>
	<g>
		<circle style="fill:#F78F8F;" cx="27.5" cy="19.5" r="3"/>
		<path style="fill:#C74343;" d="M27.5,17c1.378,0,2.5,1.121,2.5,2.5S28.878,22,27.5,22S25,20.879,25,19.5S26.122,17,27.5,17
			 M27.5,16c-1.933,0-3.5,1.567-3.5,3.5s1.567,3.5,3.5,3.5s3.5-1.567,3.5-3.5S29.433,16,27.5,16L27.5,16z"/>
	</g>
	<g>
		<circle style="fill:#F78F8F;" cx="14.5" cy="10.5" r="3"/>
		<path style="fill:#C74343;" d="M14.5,8c1.378,0,2.5,1.121,2.5,2.5S15.878,13,14.5,13S12,11.879,12,10.5S13.122,8,14.5,8 M14.5,7
			C12.567,7,11,8.567,11,10.5s1.567,3.5,3.5,3.5s3.5-1.567,3.5-3.5S16.433,7,14.5,7L14.5,7z"/>
	</g>
	<g>
		<circle style="fill:#F78F8F;" cx="11.5" cy="19.5" r="3"/>
		<path style="fill:#C74343;" d="M11.5,17c1.378,0,2.5,1.121,2.5,2.5S12.878,22,11.5,22S9,20.879,9,19.5S10.122,17,11.5,17 M11.5,16
			C9.567,16,8,17.567,8,19.5S9.567,23,11.5,23s3.5-1.567,3.5-3.5S13.433,16,11.5,16L11.5,16z"/>
	</g>
</g>
</svg>
